<svg xmlns="http://www.w3.org/2000/svg" xmlns:xlink="http://www.w3.org/1999/xlink" width="1080" zoomAndPan="magnify" viewBox="0 0 810 809.999993" height="1080" preserveAspectRatio="xMidYMid meet" version="1.0"><defs><g/><clipPath id="1b1fd520be"><path d="M 81 0 L 686.308594 0 L 686.308594 810 L 81 810 Z M 81 0 " clip-rule="nonzero"/></clipPath></defs><g clip-path="url(#1b1fd520be)"><path fill="#1b3d2f" d="M 81 0 L 686.308594 0 L 686.308594 810 L 81 810 Z M 81 0 " fill-opacity="1" fill-rule="nonzero"/></g><g fill="#f8f7f2" fill-opacity="1"><g transform="translate(99.443312, 768.782453)"><g><path d="M 147.40625 -726.8125 C 169.019531 -723.945312 187.773438 -708.664062 203.671875 -680.96875 C 219.578125 -653.28125 230.390625 -617.550781 236.109375 -573.78125 C 241.828125 -530.007812 239.953125 -482.660156 230.484375 -431.734375 C 221.015625 -380.816406 201.757812 -330.703125 172.71875 -281.390625 C 143.6875 -232.085938 102.640625 -187.78125 49.578125 -148.46875 C 51.179688 -127.925781 54.304688 -107.648438 58.953125 -87.640625 C 63.597656 -67.628906 70.476562 -51.726562 79.59375 -39.9375 C 87.8125 -30.46875 97.546875 -27.519531 108.796875 -31.09375 C 120.054688 -34.664062 131.359375 -42.125 142.703125 -53.46875 C 154.054688 -64.8125 164.375 -77.269531 173.65625 -90.84375 C 182.945312 -104.425781 189.738281 -116.3125 194.03125 -126.5 C 197.601562 -134 201.128906 -137.75 204.609375 -137.75 C 208.097656 -137.75 209.039062 -134 207.4375 -126.5 C 201.175781 -108.445312 193.535156 -91.066406 184.515625 -74.359375 C 175.492188 -57.660156 163.75 -42.613281 149.28125 -29.21875 C 138.195312 -18.675781 124.972656 -11.796875 109.609375 -8.578125 C 85.304688 -5.003906 65.5625 -11.476562 50.375 -28 C 35.195312 -44.53125 23.941406 -68.160156 16.609375 -98.890625 C 11.785156 -118.179688 8.476562 -146.988281 6.6875 -185.3125 C 4.90625 -223.644531 4.90625 -266.75 6.6875 -314.625 C 8.476562 -362.507812 12.546875 -411.015625 18.890625 -460.140625 C 25.234375 -509.273438 33.898438 -554.390625 44.890625 -595.484375 C 55.878906 -636.578125 69.8125 -669.226562 86.6875 -693.4375 C 103.570312 -717.65625 123.8125 -728.78125 147.40625 -726.8125 Z M 50.109375 -180.90625 C 97.273438 -224.5 132.648438 -270.546875 156.234375 -319.046875 C 179.828125 -367.554688 194.75 -415.125 201 -461.75 C 207.25 -508.382812 207.738281 -550.460938 202.46875 -587.984375 C 197.195312 -625.503906 188.976562 -654.984375 177.8125 -676.421875 C 166.644531 -697.867188 155.703125 -707.609375 144.984375 -705.640625 C 131.585938 -701.703125 119.796875 -687.941406 109.609375 -664.359375 C 99.421875 -640.773438 90.796875 -610.984375 83.734375 -574.984375 C 76.679688 -538.984375 70.785156 -500.523438 66.046875 -459.609375 C 61.316406 -418.703125 57.65625 -379.085938 55.0625 -340.765625 C 52.476562 -302.441406 50.828125 -269.03125 50.109375 -240.53125 C 49.398438 -212.03125 49.398438 -192.15625 50.109375 -180.90625 Z M 50.109375 -180.90625 "/></g></g></g><g fill="#f8f7f2" fill-opacity="1"><g transform="translate(289.98687, 768.782453)"><g><path d="M 26 -23.859375 C 22.425781 -23.492188 18.492188 -25.988281 14.203125 -31.34375 C 9.910156 -36.707031 6.15625 -45.957031 2.9375 -59.09375 C -0.269531 -72.226562 -1.425781 -90.40625 -0.53125 -113.625 C -0.53125 -115.945312 -0.53125 -118.894531 -0.53125 -122.46875 C -0.53125 -131.40625 -0.128906 -141.898438 0.671875 -153.953125 C 1.472656 -166.015625 3.210938 -176.828125 5.890625 -186.390625 C 8.578125 -195.953125 12.6875 -201.710938 18.21875 -203.671875 C 34.832031 -208.140625 43.859375 -202.242188 45.296875 -185.984375 C 45.296875 -180.984375 45.113281 -175.894531 44.75 -170.71875 C 44.394531 -168.394531 44.21875 -165.890625 44.21875 -163.203125 C 43.863281 -155.703125 43.503906 -148.378906 43.140625 -141.234375 C 43.140625 -134.984375 42.875 -128.910156 42.34375 -123.015625 C 42.34375 -119.078125 42.34375 -113.359375 42.34375 -105.859375 C 42.875 -95.316406 43.003906 -83.835938 42.734375 -71.421875 C 42.472656 -59.003906 41.09375 -48.191406 38.59375 -38.984375 C 36.09375 -29.785156 31.894531 -24.742188 26 -23.859375 Z M 41.8125 -259.15625 C 39.84375 -257.1875 37.113281 -255.929688 33.625 -255.390625 C 30.144531 -254.859375 27.421875 -255.128906 25.453125 -256.203125 C 23.492188 -258.171875 22.203125 -260.359375 21.578125 -262.765625 C 20.953125 -265.179688 20.640625 -268.085938 20.640625 -271.484375 C 20.992188 -272.378906 21.171875 -273.179688 21.171875 -273.890625 C 21.523438 -277.109375 22.328125 -280.238281 23.578125 -283.28125 C 27.148438 -292.382812 34.390625 -296.3125 45.296875 -295.0625 C 49.222656 -294.707031 52.164062 -293.144531 54.125 -290.375 C 56.09375 -287.601562 56.722656 -284.519531 56.015625 -281.125 C 53.328125 -272.726562 48.59375 -265.40625 41.8125 -259.15625 Z M 41.8125 -259.15625 "/></g></g></g><g fill="#f8f7f2" fill-opacity="1"><g transform="translate(362.881171, 768.782453)"><g><path d="M 395.03125 -162.40625 C 402.894531 -165.976562 407.453125 -166.601562 408.703125 -164.28125 C 410.128906 -159.632812 405.925781 -151.28125 396.09375 -139.21875 C 386.269531 -127.164062 372.960938 -114.882812 356.171875 -102.375 C 315.609375 -74.144531 281.476562 -57.257812 253.78125 -51.71875 C 226.09375 -46.1875 203.492188 -47.929688 185.984375 -56.953125 C 168.484375 -65.972656 155.441406 -78.34375 146.859375 -94.0625 C 136.679688 -111.75 130.335938 -129.257812 127.828125 -146.59375 C 124.441406 -165.53125 119.800781 -176.25 113.90625 -178.75 C 108.007812 -181.25 101.707031 -178.566406 95 -170.703125 C 88.300781 -162.847656 81.78125 -152.53125 75.4375 -139.75 C 69.09375 -126.976562 63.863281 -114.519531 59.75 -102.375 C 55.644531 -90.226562 53.414062 -81.023438 53.0625 -74.765625 C 51.8125 -71.191406 50.648438 -67.800781 49.578125 -64.59375 C 47.972656 -59.582031 46.1875 -54.664062 44.21875 -49.84375 C 39.039062 -36.445312 30.019531 -31.535156 17.15625 -35.109375 C 10.007812 -36.359375 5.898438 -40.734375 4.828125 -48.234375 C 4.285156 -53.242188 4.015625 -58.515625 4.015625 -64.046875 C 4.015625 -68.335938 3.835938 -72.894531 3.484375 -77.71875 C 2.765625 -109.875 1.960938 -142.300781 1.078125 -175 C 1.078125 -178.9375 2.953125 -181.660156 6.703125 -183.171875 C 10.453125 -184.691406 14.78125 -185.363281 19.6875 -185.1875 C 24.601562 -185.007812 28.9375 -184.25 32.6875 -182.90625 C 36.445312 -181.570312 38.503906 -179.648438 38.859375 -177.140625 C 39.753906 -171.785156 40.203125 -167.140625 40.203125 -163.203125 C 40.203125 -157.671875 40.554688 -153.695312 41.265625 -151.28125 C 41.984375 -148.875 43.632812 -148.960938 46.21875 -151.546875 C 48.8125 -154.140625 53.238281 -159.546875 59.5 -167.765625 C 69.320312 -183.484375 81.738281 -196.882812 96.75 -207.96875 C 103.351562 -212.96875 111.164062 -216.582031 120.1875 -218.8125 C 129.21875 -221.050781 137.929688 -221.367188 146.328125 -219.765625 C 155.265625 -217.441406 162.273438 -212.347656 167.359375 -204.484375 C 172.453125 -196.617188 176.296875 -187.640625 178.890625 -177.546875 C 181.484375 -167.453125 183.40625 -158.117188 184.65625 -149.546875 C 185.007812 -147.222656 185.363281 -145.253906 185.71875 -143.640625 C 187.6875 -132.210938 190.320312 -121.804688 193.625 -112.421875 C 196.9375 -103.046875 202.34375 -95.675781 209.84375 -90.3125 C 217.34375 -84.957031 228.332031 -82.90625 242.8125 -84.15625 C 274.25 -86.476562 299.210938 -93.039062 317.703125 -103.84375 C 336.203125 -114.65625 351.796875 -126.132812 364.484375 -138.28125 C 366.441406 -139.894531 368.132812 -141.503906 369.5625 -143.109375 C 372.425781 -145.078125 374.84375 -147.039062 376.8125 -149 C 381.445312 -154.007812 387.519531 -158.476562 395.03125 -162.40625 Z M 395.03125 -162.40625 "/></g></g></g></svg>