<svg xmlns="http://www.w3.org/2000/svg" xmlns:xlink="http://www.w3.org/1999/xlink" width="1200" zoomAndPan="magnify" viewBox="0 0 900 754.499978" height="1006" preserveAspectRatio="xMidYMid meet" version="1.0"><defs><g/><clipPath id="9e4ccd307d"><path d="M 145.042969 111 L 706.351562 111 L 706.351562 691 L 145.042969 691 Z M 145.042969 111 " clip-rule="nonzero"/></clipPath><clipPath id="a69244ad37"><path d="M 182.5 238.976562 L 217.640625 238.976562 L 217.640625 274.117188 L 182.5 274.117188 Z M 182.5 238.976562 " clip-rule="nonzero"/></clipPath><clipPath id="a1bcced2b3"><path d="M 200.070312 238.976562 C 190.367188 238.976562 182.5 246.84375 182.5 256.546875 C 182.5 266.253906 190.367188 274.117188 200.070312 274.117188 C 209.777344 274.117188 217.640625 266.253906 217.640625 256.546875 C 217.640625 246.84375 209.777344 238.976562 200.070312 238.976562 Z M 200.070312 238.976562 " clip-rule="nonzero"/></clipPath></defs><g clip-path="url(#9e4ccd307d)"><path fill="#1b3d2f" d="M 355.132812 119.726562 C 359.679688 118.582031 364.25 117.554688 368.847656 116.632812 C 373.445312 115.714844 378.0625 114.90625 382.699219 114.214844 C 387.335938 113.519531 391.984375 112.9375 396.648438 112.46875 C 401.3125 112 405.984375 111.644531 410.667969 111.402344 C 415.347656 111.164062 420.035156 111.035156 424.722656 111.023438 C 429.410156 111.007812 434.09375 111.109375 438.777344 111.324219 C 443.460938 111.539062 448.132812 111.867188 452.800781 112.308594 C 457.46875 112.75 462.121094 113.304688 466.761719 113.972656 C 471.402344 114.640625 476.023438 115.421875 480.625 116.3125 C 485.226562 117.207031 489.804688 118.210938 494.355469 119.324219 C 498.910156 120.441406 503.433594 121.667969 507.929688 123.003906 C 512.421875 124.335938 516.878906 125.78125 521.304688 127.332031 C 525.726562 128.886719 530.113281 130.542969 534.453125 132.308594 C 538.796875 134.074219 543.09375 135.945312 547.347656 137.917969 C 551.601562 139.894531 555.800781 141.96875 559.953125 144.148438 C 564.105469 146.328125 568.203125 148.605469 572.242188 150.984375 C 576.285156 153.363281 580.265625 155.835938 584.183594 158.40625 C 588.105469 160.980469 591.960938 163.644531 595.753906 166.402344 C 599.546875 169.164062 603.265625 172.011719 606.921875 174.953125 C 610.574219 177.890625 614.152344 180.917969 617.660156 184.035156 C 621.164062 187.148438 624.59375 190.34375 627.945312 193.625 C 631.296875 196.90625 634.566406 200.265625 637.753906 203.707031 C 640.941406 207.148438 644.042969 210.660156 647.058594 214.253906 C 650.078125 217.84375 653.003906 221.503906 655.84375 225.238281 C 658.683594 228.972656 661.429688 232.769531 664.085938 236.636719 C 666.742188 240.503906 669.300781 244.433594 671.765625 248.425781 C 674.226562 252.414062 676.59375 256.464844 678.859375 260.570312 C 681.128906 264.675781 683.296875 268.835938 685.359375 273.046875 C 687.425781 277.257812 689.386719 281.519531 691.246094 285.824219 C 693.105469 290.132812 694.859375 294.480469 696.507812 298.875 C 698.15625 303.265625 699.695312 307.695312 701.128906 312.164062 C 702.558594 316.628906 703.882812 321.128906 705.097656 325.660156 C 705.546875 327.332031 705.988281 329.039062 706.414062 330.777344 L 701.988281 332.320312 C 701.539062 330.5 701.074219 328.683594 700.585938 326.863281 C 699.382812 322.371094 698.074219 317.914062 696.652344 313.484375 C 695.230469 309.058594 693.703125 304.667969 692.070312 300.316406 C 690.433594 295.964844 688.695312 291.652344 686.847656 287.386719 C 685 283.121094 683.050781 278.902344 681 274.730469 C 678.949219 270.558594 676.792969 266.4375 674.539062 262.371094 C 672.285156 258.304688 669.933594 254.296875 667.484375 250.347656 C 665.035156 246.394531 662.488281 242.507812 659.847656 238.679688 C 657.207031 234.855469 654.476562 231.097656 651.652344 227.402344 C 648.828125 223.710938 645.914062 220.089844 642.914062 216.542969 C 639.910156 212.992188 636.824219 209.519531 633.65625 206.121094 C 630.484375 202.722656 627.230469 199.402344 623.898438 196.164062 C 620.5625 192.925781 617.152344 189.769531 613.664062 186.699219 C 610.175781 183.625 606.613281 180.640625 602.980469 177.746094 C 599.347656 174.847656 595.644531 172.042969 591.871094 169.324219 C 588.101562 166.609375 584.265625 163.988281 580.367188 161.460938 C 576.464844 158.933594 572.507812 156.5 568.488281 154.167969 C 564.46875 151.832031 560.398438 149.601562 556.269531 147.464844 C 552.140625 145.332031 547.964844 143.300781 543.738281 141.371094 C 539.507812 139.441406 535.238281 137.617188 530.921875 135.894531 C 526.605469 134.175781 522.25 132.5625 517.851562 131.054688 C 513.457031 129.550781 509.027344 128.152344 504.5625 126.863281 C 500.101562 125.570312 495.605469 124.394531 491.085938 123.324219 C 486.5625 122.253906 482.019531 121.296875 477.449219 120.449219 C 472.882812 119.601562 468.296875 118.867188 463.691406 118.246094 C 459.085938 117.625 454.46875 117.117188 449.839844 116.71875 C 445.210938 116.324219 440.574219 116.042969 435.933594 115.875 C 431.289062 115.707031 426.644531 115.652344 422 115.710938 C 417.351562 115.769531 412.710938 115.941406 408.074219 116.226562 C 403.4375 116.515625 398.808594 116.914062 394.191406 117.429688 C 389.574219 117.941406 384.972656 118.566406 380.386719 119.308594 C 375.796875 120.046875 371.230469 120.898438 366.6875 121.859375 C 362.140625 122.820312 357.621094 123.894531 353.128906 125.078125 C 353.832031 123.3125 354.507812 121.542969 355.132812 119.738281 Z M 149.46875 469.890625 C 149.84375 471.382812 150.21875 472.863281 150.621094 474.355469 C 151.824219 478.855469 153.140625 483.328125 154.566406 487.765625 C 155.992188 492.203125 157.523438 496.605469 159.164062 500.964844 C 160.804688 505.328125 162.550781 509.648438 164.402344 513.925781 C 166.257812 518.203125 168.210938 522.433594 170.273438 526.613281 C 172.332031 530.792969 174.492188 534.921875 176.757812 538.996094 C 179.019531 543.070312 181.378906 547.089844 183.839844 551.046875 C 186.296875 555.007812 188.851562 558.902344 191.503906 562.734375 C 194.152344 566.570312 196.894531 570.335938 199.730469 574.035156 C 202.566406 577.734375 205.492188 581.359375 208.503906 584.914062 C 211.515625 588.46875 214.613281 591.949219 217.796875 595.351562 C 220.980469 598.753906 224.246094 602.078125 227.59375 605.320312 C 230.941406 608.5625 234.363281 611.71875 237.863281 614.792969 C 241.367188 617.867188 244.941406 620.855469 248.589844 623.753906 C 252.238281 626.652344 255.953125 629.460938 259.738281 632.175781 C 263.523438 634.890625 267.375 637.511719 271.289062 640.039062 C 275.203125 642.566406 279.175781 644.996094 283.210938 647.328125 C 287.242188 649.660156 291.332031 651.890625 295.472656 654.023438 C 299.617188 656.152344 303.808594 658.179688 308.050781 660.105469 C 312.292969 662.03125 316.578125 663.851562 320.910156 665.566406 C 325.242188 667.28125 329.613281 668.886719 334.023438 670.386719 C 338.433594 671.886719 342.878906 673.277344 347.355469 674.558594 C 351.835938 675.839844 356.339844 677.011719 360.878906 678.070312 C 365.414062 679.132812 369.972656 680.078125 374.554688 680.914062 C 379.136719 681.75 383.738281 682.472656 388.355469 683.085938 C 392.972656 683.695312 397.601562 684.191406 402.242188 684.574219 C 406.886719 684.957031 411.535156 685.226562 416.191406 685.378906 C 420.84375 685.535156 425.5 685.574219 430.160156 685.5 C 434.816406 685.425781 439.46875 685.238281 444.117188 684.933594 C 448.765625 684.628906 453.402344 684.214844 458.03125 683.683594 C 462.65625 683.152344 467.269531 682.507812 471.863281 681.75 C 476.460938 680.992188 481.035156 680.125 485.589844 679.140625 C 490.140625 678.160156 494.667969 677.066406 499.167969 675.863281 C 498.441406 677.632812 497.738281 679.410156 497.089844 681.21875 C 492.535156 682.378906 487.957031 683.425781 483.351562 684.363281 C 478.75 685.300781 474.125 686.125 469.480469 686.839844 C 464.835938 687.550781 460.175781 688.148438 455.503906 688.632812 C 450.828125 689.121094 446.148438 689.488281 441.457031 689.746094 C 436.765625 690.003906 432.070312 690.144531 427.371094 690.175781 C 422.671875 690.203125 417.976562 690.117188 413.28125 689.914062 C 408.589844 689.714844 403.902344 689.398438 399.222656 688.96875 C 394.542969 688.539062 389.878906 687.996094 385.226562 687.339844 C 380.574219 686.683594 375.941406 685.914062 371.324219 685.03125 C 366.710938 684.148438 362.121094 683.152344 357.550781 682.046875 C 352.984375 680.941406 348.449219 679.722656 343.941406 678.394531 C 339.433594 677.066406 334.960938 675.632812 330.523438 674.085938 C 326.085938 672.539062 321.691406 670.886719 317.332031 669.128906 C 312.976562 667.367188 308.664062 665.503906 304.398438 663.53125 C 300.132812 661.5625 295.917969 659.488281 291.75 657.316406 C 287.585938 655.140625 283.476562 652.863281 279.421875 650.488281 C 275.367188 648.113281 271.371094 645.636719 267.4375 643.066406 C 263.503906 640.496094 259.632812 637.832031 255.828125 635.074219 C 252.023438 632.3125 248.289062 629.464844 244.625 626.523438 C 240.957031 623.582031 237.363281 620.550781 233.847656 617.4375 C 230.328125 614.320312 226.886719 611.121094 223.523438 607.835938 C 220.160156 604.550781 216.878906 601.1875 213.679688 597.742188 C 210.480469 594.300781 207.367188 590.78125 204.339844 587.183594 C 201.3125 583.589844 198.375 579.921875 195.523438 576.183594 C 192.675781 572.445312 189.917969 568.636719 187.253906 564.765625 C 184.589844 560.890625 182.023438 556.953125 179.550781 552.957031 C 177.078125 548.957031 174.703125 544.902344 172.429688 540.789062 C 170.152344 536.671875 167.980469 532.507812 165.90625 528.285156 C 163.832031 524.066406 161.863281 519.796875 160 515.480469 C 158.136719 511.164062 156.375 506.804688 154.722656 502.40625 C 153.070312 498.003906 151.527344 493.5625 150.089844 489.085938 C 148.652344 484.609375 147.328125 480.097656 146.109375 475.558594 C 145.746094 474.191406 145.394531 472.8125 145.042969 471.445312 Z M 149.46875 469.890625 " fill-opacity="1" fill-rule="evenodd"/></g><g fill="#1b3d2f" fill-opacity="1"><g transform="translate(545.52118, 654.24623)"><g><path d="M -0.742188 -31.117188 C -3.003906 -30.351562 -4.488281 -29.164062 -5.195312 -27.597656 C -5.933594 -25.976562 -5.898438 -24.105469 -5.15625 -21.917969 C -4.882812 -21.113281 -4.558594 -20.410156 -4.171875 -19.769531 C -3.785156 -19.132812 -3.242188 -18.542969 -2.625 -17.984375 C -2.007812 -17.421875 -1.234375 -16.914062 -0.347656 -16.445312 C 0.5 -15.960938 1.566406 -15.464844 2.785156 -15.023438 C 3.722656 -14.65625 4.53125 -14.289062 5.214844 -13.917969 C 5.894531 -13.550781 6.472656 -13.234375 6.9375 -12.878906 C 7.398438 -12.519531 7.746094 -12.125 8.058594 -11.714844 C 8.328125 -11.292969 8.574219 -10.820312 8.730469 -10.359375 C 9.066406 -9.363281 9.070312 -8.59375 8.78125 -8.066406 C 8.5 -7.5 7.988281 -7.113281 7.261719 -6.867188 C 6.492188 -6.605469 5.851562 -6.605469 5.324219 -6.894531 C 4.773438 -7.136719 4.347656 -7.761719 4.007812 -8.761719 L 3.628906 -9.875 C 3.550781 -10.105469 3.371094 -10.257812 3.167969 -10.359375 C 2.921875 -10.449219 2.691406 -10.496094 2.460938 -10.421875 L -0.148438 -9.535156 C -0.378906 -9.457031 -0.570312 -9.265625 -0.671875 -9.058594 C -0.773438 -8.851562 -0.785156 -8.636719 -0.707031 -8.40625 L -0.421875 -7.558594 C 0.332031 -5.332031 1.492188 -3.800781 3.050781 -3 C 4.605469 -2.203125 6.488281 -2.199219 8.753906 -2.964844 C 10.980469 -3.71875 12.472656 -4.867188 13.222656 -6.449219 C 13.972656 -8.027344 13.960938 -9.949219 13.207031 -12.175781 C 12.945312 -12.945312 12.570312 -13.671875 12.183594 -14.3125 C 11.796875 -14.953125 11.308594 -15.511719 10.6875 -16.074219 C 10.070312 -16.636719 9.300781 -17.144531 8.414062 -17.613281 C 7.527344 -18.082031 6.460938 -18.578125 5.265625 -19.074219 C 4.289062 -19.425781 3.492188 -19.757812 2.8125 -20.125 C 2.128906 -20.492188 1.578125 -20.863281 1.113281 -21.21875 C 0.652344 -21.574219 0.277344 -21.917969 0.0078125 -22.339844 C -0.300781 -22.75 -0.496094 -23.199219 -0.679688 -23.734375 C -1.003906 -24.695312 -1.046875 -25.449219 -0.804688 -26.003906 C -0.566406 -26.554688 -0.0664062 -26.980469 0.699219 -27.242188 C 1.429688 -27.488281 2.085938 -27.453125 2.609375 -27.160156 C 3.136719 -26.867188 3.5625 -26.242188 3.890625 -25.28125 L 3.980469 -25.015625 C 4.070312 -24.746094 4.226562 -24.539062 4.433594 -24.4375 C 4.636719 -24.335938 4.894531 -24.339844 5.164062 -24.429688 L 7.734375 -25.300781 C 7.964844 -25.378906 8.167969 -25.535156 8.269531 -25.738281 C 8.371094 -25.945312 8.410156 -26.214844 8.316406 -26.484375 C 7.578125 -28.671875 6.429688 -30.164062 4.898438 -31.015625 C 3.34375 -31.816406 1.484375 -31.871094 -0.742188 -31.117188 Z M -0.742188 -31.117188 "/></g></g></g><g fill="#1b3d2f" fill-opacity="1"><g transform="translate(579.707175, 641.161769)"><g><path d="M -0.667969 -32.097656 L 4.199219 -23.117188 C 4.355469 -22.832031 4.382812 -22.527344 4.285156 -22.195312 C 4.1875 -21.867188 4.011719 -21.679688 3.726562 -21.523438 L -1.332031 -18.78125 C -1.617188 -18.628906 -1.90625 -18.5625 -2.234375 -18.660156 C -2.566406 -18.757812 -2.769531 -18.96875 -2.925781 -19.253906 L -7.792969 -28.234375 C -7.949219 -28.519531 -8.171875 -28.675781 -8.5 -28.773438 C -8.832031 -28.871094 -9.101562 -28.859375 -9.386719 -28.707031 L -11.347656 -27.644531 C -11.632812 -27.488281 -11.824219 -27.246094 -11.921875 -26.917969 C -12.019531 -26.585938 -11.976562 -26.335938 -11.820312 -26.050781 L 1.222656 -2 C 1.375 -1.714844 1.582031 -1.503906 1.910156 -1.40625 C 2.242188 -1.308594 2.53125 -1.371094 2.816406 -1.527344 L 4.773438 -2.589844 C 5.058594 -2.742188 5.234375 -2.929688 5.332031 -3.261719 C 5.429688 -3.589844 5.402344 -3.898438 5.246094 -4.183594 L 0.378906 -13.160156 C 0.222656 -13.445312 0.179688 -13.699219 0.277344 -14.027344 C 0.375 -14.359375 0.566406 -14.601562 0.851562 -14.753906 L 5.910156 -17.5 C 6.195312 -17.652344 6.46875 -17.664062 6.796875 -17.566406 C 7.128906 -17.46875 7.351562 -17.3125 7.503906 -17.027344 L 12.375 -8.046875 C 12.527344 -7.761719 12.734375 -7.550781 13.066406 -7.453125 C 13.394531 -7.355469 13.683594 -7.417969 14.003906 -7.59375 L 15.925781 -8.636719 C 16.210938 -8.792969 16.386719 -8.980469 16.484375 -9.308594 C 16.582031 -9.636719 16.554688 -9.945312 16.398438 -10.230469 L 3.359375 -34.28125 C 3.203125 -34.566406 2.980469 -34.722656 2.652344 -34.820312 C 2.320312 -34.917969 2.050781 -34.910156 1.765625 -34.753906 L -0.160156 -33.710938 C -0.480469 -33.535156 -0.671875 -33.292969 -0.769531 -32.964844 C -0.867188 -32.636719 -0.824219 -32.382812 -0.667969 -32.097656 Z M -0.667969 -32.097656 "/></g></g></g><g fill="#1b3d2f" fill-opacity="1"><g transform="translate(613.271158, 620.935163)"><g><path d="M -13.496094 -27.019531 L -15.277344 -25.679688 C -15.539062 -25.488281 -15.691406 -25.21875 -15.742188 -24.878906 C -15.789062 -24.539062 -15.707031 -24.292969 -15.511719 -24.035156 L 0.914062 -2.15625 C 1.109375 -1.898438 1.34375 -1.71875 1.683594 -1.671875 C 2.027344 -1.621094 2.300781 -1.726562 2.5625 -1.921875 L 4.34375 -3.261719 C 4.601562 -3.457031 4.75 -3.667969 4.796875 -4.007812 C 4.84375 -4.347656 4.773438 -4.648438 4.578125 -4.90625 L -11.851562 -26.785156 C -12.046875 -27.042969 -12.289062 -27.167969 -12.628906 -27.214844 C -12.96875 -27.261719 -13.238281 -27.214844 -13.496094 -27.019531 Z M -13.496094 -27.019531 "/></g></g></g><g fill="#1b3d2f" fill-opacity="1"><g transform="translate(633.843711, 604.33447)"><g><path d="M 6.976562 -13.390625 L 2.289062 -8.734375 C 2.058594 -8.507812 1.800781 -8.363281 1.457031 -8.363281 C 1.113281 -8.367188 0.855469 -8.511719 0.628906 -8.738281 L -15.429688 -24.894531 C -15.660156 -25.125 -15.917969 -25.210938 -16.261719 -25.214844 C -16.605469 -25.214844 -16.863281 -25.128906 -17.09375 -24.898438 L -18.675781 -23.328125 C -18.90625 -23.101562 -19.019531 -22.8125 -19.019531 -22.46875 C -19.023438 -22.125 -18.910156 -21.894531 -18.679688 -21.667969 L 0.609375 -2.261719 C 0.835938 -2.03125 1.09375 -1.886719 1.4375 -1.886719 C 1.78125 -1.886719 2.039062 -2.027344 2.269531 -2.257812 L 10.203125 -10.144531 C 10.433594 -10.371094 10.550781 -10.601562 10.550781 -10.945312 C 10.550781 -11.289062 10.4375 -11.578125 10.210938 -11.804688 L 8.636719 -13.386719 C 8.410156 -13.617188 8.152344 -13.703125 7.808594 -13.707031 C 7.464844 -13.707031 7.207031 -13.621094 6.976562 -13.390625 Z M 6.976562 -13.390625 "/></g></g></g><g fill="#1b3d2f" fill-opacity="1"><g transform="translate(657.817087, 578.333893)"><g><path d="M -20.363281 -22.304688 L -21.714844 -20.53125 C -21.910156 -20.273438 -21.984375 -19.972656 -21.9375 -19.632812 C -21.890625 -19.289062 -21.746094 -19.078125 -21.488281 -18.882812 L 0.289062 -2.324219 C 0.550781 -2.128906 0.824219 -2.019531 1.164062 -2.066406 C 1.503906 -2.113281 1.742188 -2.289062 1.9375 -2.550781 L 3.285156 -4.324219 C 3.484375 -4.582031 3.566406 -4.824219 3.519531 -5.164062 C 3.472656 -5.507812 3.320312 -5.773438 3.0625 -5.972656 L -18.71875 -22.527344 C -18.976562 -22.726562 -19.242188 -22.777344 -19.582031 -22.730469 C -19.925781 -22.683594 -20.167969 -22.5625 -20.363281 -22.304688 Z M -20.363281 -22.304688 "/></g></g></g><g fill="#1b3d2f" fill-opacity="1"><g transform="translate(673.254213, 556.680311)"><g><path d="M -16.640625 -31.550781 L -17.6875 -29.628906 C -17.84375 -29.34375 -17.871094 -29.035156 -17.773438 -28.707031 C -17.675781 -28.378906 -17.523438 -28.152344 -17.238281 -28 L -2.609375 -20.027344 C -2.398438 -19.910156 -2.3125 -19.726562 -2.375 -19.527344 C -2.4375 -19.238281 -2.585938 -19.136719 -2.839844 -19.183594 L -21.953125 -20.367188 C -22.441406 -20.402344 -22.828125 -20.199219 -23.0625 -19.769531 L -24.554688 -17.03125 C -24.710938 -16.746094 -24.738281 -16.4375 -24.640625 -16.109375 C -24.542969 -15.777344 -24.371094 -15.589844 -24.085938 -15.4375 L -0.0625 -2.34375 C 0.222656 -2.1875 0.511719 -2.121094 0.839844 -2.21875 C 1.171875 -2.316406 1.378906 -2.527344 1.53125 -2.8125 L 2.578125 -4.734375 C 2.734375 -5.019531 2.800781 -5.304688 2.703125 -5.636719 C 2.605469 -5.964844 2.414062 -6.207031 2.128906 -6.363281 L -12.496094 -14.335938 C -12.710938 -14.453125 -12.757812 -14.617188 -12.714844 -14.871094 C -12.632812 -15.101562 -12.484375 -15.207031 -12.269531 -15.179688 L 6.84375 -13.996094 C 7.367188 -13.941406 7.71875 -14.164062 7.953125 -14.589844 L 9.445312 -17.332031 C 9.601562 -17.617188 9.632812 -17.925781 9.535156 -18.253906 C 9.453125 -18.527344 9.261719 -18.769531 8.976562 -18.925781 L -15.046875 -32.019531 C -15.332031 -32.175781 -15.601562 -32.183594 -15.933594 -32.089844 C -16.261719 -31.992188 -16.484375 -31.835938 -16.640625 -31.550781 Z M -16.640625 -31.550781 "/></g></g></g><g fill="#1b3d2f" fill-opacity="1"><g transform="translate(691.484163, 519.675141)"><g><path d="M -12.144531 -13.085938 L -0.941406 -2.609375 C -0.628906 -2.25 -0.269531 -2.175781 0.203125 -2.320312 C 0.613281 -2.402344 0.867188 -2.660156 1.003906 -3.082031 L 1.761719 -5.394531 C 1.910156 -5.855469 1.832031 -6.265625 1.445312 -6.648438 L -5.777344 -13.394531 C -5.878906 -13.472656 -5.917969 -13.613281 -5.867188 -13.765625 C -5.832031 -13.882812 -5.730469 -13.933594 -5.589844 -13.972656 L 4.222656 -15.164062 C 4.75 -15.207031 5.054688 -15.492188 5.21875 -15.992188 L 5.972656 -18.304688 C 6.097656 -18.6875 6.042969 -19.046875 5.773438 -19.390625 C 5.460938 -19.75 5.128906 -19.898438 4.679688 -19.832031 L -10.546875 -17.980469 C -10.636719 -17.964844 -10.714844 -17.992188 -10.816406 -18.066406 L -20.578125 -27.222656 C -20.914062 -27.5 -21.300781 -27.628906 -21.683594 -27.496094 C -22.105469 -27.378906 -22.398438 -27.132812 -22.523438 -26.746094 L -23.28125 -24.4375 C -23.441406 -23.933594 -23.324219 -23.511719 -22.964844 -23.183594 L -17.148438 -17.746094 C -17.019531 -17.617188 -17.003906 -17.527344 -17.042969 -17.414062 C -17.09375 -17.257812 -17.171875 -17.15625 -17.335938 -17.167969 L -25.238281 -16.207031 C -25.738281 -16.113281 -26.082031 -15.84375 -26.234375 -15.378906 L -26.988281 -13.070312 C -27.125 -12.644531 -27.035156 -12.273438 -26.75 -11.96875 C -26.515625 -11.636719 -26.144531 -11.472656 -25.695312 -11.539062 L -12.414062 -13.175781 C -12.300781 -13.136719 -12.222656 -13.113281 -12.144531 -13.085938 Z M -12.144531 -13.085938 "/></g></g></g><g fill="#1b3d2f" fill-opacity="1"><g transform="translate(702.228993, 480.738633)"><g><path d="M -28.410156 -10.25 L -28.777344 -8.050781 C -28.832031 -7.730469 -28.757812 -7.429688 -28.558594 -7.152344 C -28.359375 -6.871094 -28.132812 -6.75 -27.8125 -6.699219 L -0.824219 -2.191406 C -0.503906 -2.140625 -0.210938 -2.171875 0.0664062 -2.371094 C 0.347656 -2.570312 0.472656 -2.839844 0.527344 -3.160156 L 0.894531 -5.355469 C 0.949219 -5.675781 0.90625 -5.929688 0.707031 -6.210938 C 0.507812 -6.488281 0.25 -6.65625 -0.0703125 -6.710938 L -27.058594 -11.214844 C -27.378906 -11.269531 -27.636719 -11.1875 -27.917969 -10.988281 C -28.195312 -10.789062 -28.355469 -10.570312 -28.410156 -10.25 Z M -28.410156 -10.25 "/></g></g></g><g fill="#47624e" fill-opacity="1"><g transform="translate(179.629718, 484.868549)"><g><path d="M 177.476562 -225.503906 C 176.804688 -231.304688 172.507812 -234.300781 166.164062 -233.566406 C 131.625 -229.566406 -17.078125 -41.203125 -11.421875 7.660156 C -10.40625 16.453125 -5.21875 19.988281 4.753906 18.835938 C 20.980469 16.957031 64.515625 -14.082031 96.625 -42.238281 C 97.460938 -42.976562 97.886719 -44.035156 97.761719 -45.125 C 97.550781 -46.9375 95.933594 -48.21875 94.121094 -48.011719 C 93.394531 -47.925781 92.78125 -47.671875 92.289062 -47.15625 C 56.425781 -15.71875 16.960938 10.804688 3.996094 12.308594 C -2.441406 13.050781 -4.320312 11.890625 -4.894531 6.90625 C -5.789062 -0.800781 -2.347656 -13.140625 5.386719 -29.652344 C 70.378906 -80.082031 180.28125 -201.300781 177.476562 -225.503906 Z M 166.917969 -227.039062 C 169.820312 -227.375 170.71875 -226.742188 170.949219 -224.75 C 173.101562 -206.164062 80.023438 -99.9375 12.808594 -44.109375 C 51.804688 -115.964844 142.894531 -224.257812 166.917969 -227.039062 Z M 166.917969 -227.039062 "/></g></g></g><g fill="#47624e" fill-opacity="1"><g transform="translate(267.693669, 474.674379)"><g><path d="M 23.730469 -55.296875 C 24.730469 -55.410156 25.675781 -55.980469 26.214844 -56.871094 C 26.433594 -57.355469 26.902344 -58.050781 27.351562 -58.929688 C 28.515625 -60.8125 29.882812 -63.265625 30.59375 -64.265625 C 30.972656 -64.953125 31.164062 -65.710938 31.078125 -66.4375 C 30.867188 -68.25 29.25 -69.53125 27.4375 -69.320312 C 26.441406 -69.207031 25.585938 -68.648438 25.035156 -67.847656 L 20.585938 -60.261719 C 20.195312 -59.664062 20.007812 -58.90625 20.089844 -58.183594 C 20.300781 -56.367188 21.917969 -55.085938 23.730469 -55.296875 Z M 3.824219 2.863281 C 17.601562 1.269531 58.785156 -23.894531 79.121094 -40.300781 C 79.960938 -40.953125 80.460938 -42.203125 80.335938 -43.292969 C 80.136719 -45.011719 78.417969 -46.375 76.695312 -46.175781 C 76.148438 -46.113281 75.625 -45.871094 75.023438 -45.523438 C 54.941406 -29.328125 15.394531 -5.089844 3.066406 -3.664062 C -1.011719 -3.191406 -2.722656 -4.460938 -3.128906 -7.996094 C -3.769531 -13.527344 4.183594 -28.136719 16.40625 -43.976562 L 16.488281 -44.078125 C 16.957031 -44.773438 17.144531 -45.53125 17.050781 -46.347656 C 16.851562 -48.070312 15.132812 -49.433594 13.410156 -49.230469 C 12.503906 -49.128906 11.730469 -48.671875 11.167969 -47.960938 C -2.878906 -29.617188 -10.527344 -14.765625 -9.65625 -7.242188 C -8.816406 0.0117188 -3.792969 3.746094 3.824219 2.863281 Z M 3.824219 2.863281 "/></g></g></g><g fill="#47624e" fill-opacity="1"><g transform="translate(338.170556, 466.516064)"><g><path d="M -11.429688 2.058594 C -10.160156 1.910156 -8.382812 0.601562 -3.574219 -3.902344 C -2.914062 -4.53125 -2.160156 -5.171875 -1.417969 -5.898438 C 13.203125 -19.257812 42.871094 -46.304688 55.109375 -47.71875 C 56.105469 -47.835938 56.632812 -47.253906 56.726562 -46.4375 C 56.917969 -44.804688 56.167969 -38.5625 55.421875 -32.324219 C 54.773438 -26.828125 54.121094 -21.332031 54.414062 -18.792969 C 55.054688 -13.261719 59.25 -10.351562 65.507812 -11.074219 C 80.554688 -12.816406 105.164062 -26.414062 128.695312 -46.132812 C 129.628906 -46.792969 130.046875 -47.945312 129.921875 -49.03125 C 129.714844 -50.84375 128.09375 -52.125 126.28125 -51.917969 C 125.648438 -51.84375 125.035156 -51.589844 124.53125 -51.164062 C 102.082031 -32.394531 78.441406 -19.1875 64.75 -17.601562 C 62.03125 -17.285156 61.140625 -17.828125 60.941406 -19.550781 C 60.734375 -21.363281 61.285156 -26.109375 61.945312 -31.515625 C 62.695312 -37.757812 63.539062 -44.746094 63.109375 -48.460938 C 62.625 -52.632812 59.429688 -54.835938 54.714844 -54.289062 C 44.472656 -53.105469 27.246094 -40.820312 -2.101562 -14.179688 C -3.355469 -13.117188 -3.800781 -13.800781 -3.191406 -14.878906 C 3.285156 -26.378906 18.238281 -48.78125 33.21875 -63.007812 C 33.960938 -63.738281 34.300781 -64.789062 34.183594 -65.785156 C 33.976562 -67.597656 32.355469 -68.878906 30.542969 -68.671875 C 29.820312 -68.585938 29.125 -68.230469 28.621094 -67.804688 C 6.800781 -46.8125 -15.5 -8.496094 -16.027344 -2.738281 C -16.324219 0.234375 -14.238281 2.382812 -11.429688 2.058594 Z M -11.429688 2.058594 "/></g></g></g><g fill="#47624e" fill-opacity="1"><g transform="translate(458.145, 452.627976)"><g><path d="M 177.476562 -225.503906 C 176.804688 -231.304688 172.507812 -234.300781 166.164062 -233.566406 C 131.625 -229.566406 -17.078125 -41.203125 -11.421875 7.660156 C -10.40625 16.453125 -5.21875 19.988281 4.753906 18.835938 C 20.980469 16.957031 64.515625 -14.082031 96.625 -42.238281 C 97.460938 -42.976562 97.886719 -44.035156 97.761719 -45.125 C 97.550781 -46.9375 95.933594 -48.21875 94.121094 -48.011719 C 93.394531 -47.925781 92.78125 -47.671875 92.289062 -47.15625 C 56.425781 -15.71875 16.960938 10.804688 3.996094 12.308594 C -2.441406 13.050781 -4.320312 11.890625 -4.894531 6.90625 C -5.789062 -0.800781 -2.347656 -13.140625 5.386719 -29.652344 C 70.378906 -80.082031 180.28125 -201.300781 177.476562 -225.503906 Z M 166.917969 -227.039062 C 169.820312 -227.375 170.71875 -226.742188 170.949219 -224.75 C 173.101562 -206.164062 80.023438 -99.9375 12.808594 -44.109375 C 51.804688 -115.964844 142.894531 -224.257812 166.917969 -227.039062 Z M 166.917969 -227.039062 "/></g></g></g><g fill="#47624e" fill-opacity="1"><g transform="translate(546.208963, 442.433804)"><g><path d="M 23.730469 -55.296875 C 24.730469 -55.410156 25.675781 -55.980469 26.214844 -56.871094 C 26.433594 -57.355469 26.902344 -58.050781 27.351562 -58.929688 C 28.515625 -60.8125 29.882812 -63.265625 30.59375 -64.265625 C 30.972656 -64.953125 31.164062 -65.710938 31.078125 -66.4375 C 30.867188 -68.25 29.25 -69.53125 27.4375 -69.320312 C 26.441406 -69.207031 25.585938 -68.648438 25.035156 -67.847656 L 20.585938 -60.261719 C 20.195312 -59.664062 20.007812 -58.90625 20.089844 -58.183594 C 20.300781 -56.367188 21.917969 -55.085938 23.730469 -55.296875 Z M 3.824219 2.863281 C 17.601562 1.269531 58.785156 -23.894531 79.121094 -40.300781 C 79.960938 -40.953125 80.460938 -42.203125 80.335938 -43.292969 C 80.136719 -45.011719 78.417969 -46.375 76.695312 -46.175781 C 76.148438 -46.113281 75.625 -45.871094 75.023438 -45.523438 C 54.941406 -29.328125 15.394531 -5.089844 3.066406 -3.664062 C -1.011719 -3.191406 -2.722656 -4.460938 -3.128906 -7.996094 C -3.769531 -13.527344 4.183594 -28.136719 16.40625 -43.976562 L 16.488281 -44.078125 C 16.957031 -44.773438 17.144531 -45.53125 17.050781 -46.347656 C 16.851562 -48.070312 15.132812 -49.433594 13.410156 -49.230469 C 12.503906 -49.128906 11.730469 -48.671875 11.167969 -47.960938 C -2.878906 -29.617188 -10.527344 -14.765625 -9.65625 -7.242188 C -8.816406 0.0117188 -3.792969 3.746094 3.824219 2.863281 Z M 3.824219 2.863281 "/></g></g></g><g fill="#47624e" fill-opacity="1"><g transform="translate(616.68585, 434.275489)"><g><path d="M -11.429688 2.058594 C -10.160156 1.910156 -8.382812 0.601562 -3.574219 -3.902344 C -2.914062 -4.53125 -2.160156 -5.171875 -1.417969 -5.898438 C 13.203125 -19.257812 42.871094 -46.304688 55.109375 -47.71875 C 56.105469 -47.835938 56.632812 -47.253906 56.726562 -46.4375 C 56.917969 -44.804688 56.167969 -38.5625 55.421875 -32.324219 C 54.773438 -26.828125 54.121094 -21.332031 54.414062 -18.792969 C 55.054688 -13.261719 59.25 -10.351562 65.507812 -11.074219 C 80.554688 -12.816406 105.164062 -26.414062 128.695312 -46.132812 C 129.628906 -46.792969 130.046875 -47.945312 129.921875 -49.03125 C 129.714844 -50.84375 128.09375 -52.125 126.28125 -51.917969 C 125.648438 -51.84375 125.035156 -51.589844 124.53125 -51.164062 C 102.082031 -32.394531 78.441406 -19.1875 64.75 -17.601562 C 62.03125 -17.285156 61.140625 -17.828125 60.941406 -19.550781 C 60.734375 -21.363281 61.285156 -26.109375 61.945312 -31.515625 C 62.695312 -37.757812 63.539062 -44.746094 63.109375 -48.460938 C 62.625 -52.632812 59.429688 -54.835938 54.714844 -54.289062 C 44.472656 -53.105469 27.246094 -40.820312 -2.101562 -14.179688 C -3.355469 -13.117188 -3.800781 -13.800781 -3.191406 -14.878906 C 3.285156 -26.378906 18.238281 -48.78125 33.21875 -63.007812 C 33.960938 -63.738281 34.300781 -64.789062 34.183594 -65.785156 C 33.976562 -67.597656 32.355469 -68.878906 30.542969 -68.671875 C 29.820312 -68.585938 29.125 -68.230469 28.621094 -67.804688 C 6.800781 -46.8125 -15.5 -8.496094 -16.027344 -2.738281 C -16.324219 0.234375 -14.238281 2.382812 -11.429688 2.058594 Z M -11.429688 2.058594 "/></g></g></g><g clip-path="url(#a69244ad37)"><g clip-path="url(#a1bcced2b3)"><path fill="#1b3d2f" d="M 182.5 238.976562 L 217.640625 238.976562 L 217.640625 274.117188 L 182.5 274.117188 Z M 182.5 238.976562 " fill-opacity="1" fill-rule="nonzero"/></g></g></svg>